<?xml version="1.0" standalone="no"?>
<!DOCTYPE svg PUBLIC "-//W3C//DTD SVG 20010904//EN"
 "http://www.w3.org/TR/2001/REC-SVG-20010904/DTD/svg10.dtd">
<svg version="1.0" xmlns="http://www.w3.org/2000/svg"
 width="1000.000000pt" height="1000.000000pt" viewBox="0 0 1000.000000 1000.000000"
 preserveAspectRatio="xMidYMid meet">
<metadata>
Created by potrace 1.11, written by Peter Selinger 2001-2013
</metadata>
<g transform="translate(0.000000,1000.000000) scale(0.100000,-0.100000)"
fill="#000000" stroke="none">
<path d="M4709 9815 c-5 -4 -107 -14 -204 -18 -22 -2 -44 -5 -50 -9 -5 -3 -25
-5 -42 -3 -18 1 -33 -1 -33 -4 0 -3 -20 -7 -44 -9 -24 -1 -54 -5 -67 -8 -13
-2 -42 -7 -64 -10 -22 -3 -69 -12 -105 -20 -36 -8 -83 -17 -104 -20 -22 -3
-48 -10 -58 -15 -10 -5 -18 -8 -18 -5 0 2 -20 -2 -45 -10 -25 -7 -45 -10 -45
-7 0 3 -7 0 -15 -7 -8 -7 -22 -10 -30 -6 -8 3 -15 1 -15 -4 0 -6 -8 -10 -18
-10 -39 0 -416 -130 -542 -187 -30 -14 -59 -26 -65 -27 -5 -2 -55 -24 -110
-50 -55 -26 -102 -47 -104 -46 -2 1 -7 -2 -10 -7 -3 -4 -24 -17 -46 -28 -79
-40 -230 -128 -233 -136 -2 -5 -9 -9 -16 -9 -7 0 -38 -18 -69 -40 -32 -22 -57
-36 -57 -32 0 4 -4 2 -8 -3 -4 -6 -23 -22 -42 -35 -61 -42 -184 -134 -210
-157 -14 -13 -28 -23 -31 -23 -3 0 -20 -12 -37 -27 -17 -16 -57 -50 -89 -78
-89 -77 -193 -177 -193 -186 0 -4 30 -54 68 -111 37 -56 73 -115 81 -130 8
-16 18 -28 23 -28 4 0 8 -7 8 -15 0 -9 7 -18 15 -21 8 -4 13 -9 10 -14 -2 -4
3 -16 13 -26 9 -10 23 -31 31 -46 8 -15 22 -36 31 -45 9 -10 18 -22 20 -28 2
-5 23 -40 47 -77 42 -65 63 -88 63 -71 0 10 141 155 217 223 84 76 105 93 193
157 47 34 96 72 109 83 13 11 30 20 37 20 7 0 14 4 16 8 4 10 155 102 168 102
4 0 10 4 12 8 6 14 341 175 391 187 15 4 27 12 27 18 0 6 3 7 7 4 3 -4 12 -2
20 4 7 6 13 8 13 4 0 -4 7 -2 15 5 8 7 15 9 15 5 0 -4 6 -3 13 3 12 10 249 88
291 96 12 2 33 9 47 14 14 6 39 12 55 15 16 3 56 12 89 20 33 9 83 19 110 23
28 3 54 9 59 12 5 3 23 7 40 9 17 2 45 5 61 7 17 2 30 5 30 6 0 1 14 3 30 5
17 1 48 5 71 9 64 9 141 16 234 23 116 8 513 12 523 6 5 -3 46 -7 90 -9 96 -3
187 -12 302 -29 22 -3 55 -7 73 -8 17 -1 32 -5 32 -9 0 -4 8 -7 18 -7 35 0
191 -32 327 -68 11 -3 28 -5 38 -5 9 1 17 -3 17 -6 0 -4 8 -9 18 -10 21 -2 43
-7 62 -15 8 -3 78 -27 155 -52 77 -26 158 -55 180 -65 22 -10 69 -30 105 -45
36 -15 80 -36 98 -47 17 -11 32 -17 32 -14 0 3 27 -11 61 -30 33 -18 63 -34
65 -34 2 0 33 -18 69 -40 36 -22 67 -40 70 -40 8 0 130 -85 133 -92 2 -5 8 -8
13 -8 9 0 164 -112 179 -129 3 -3 34 -31 70 -61 36 -30 106 -96 157 -147 51
-51 94 -93 97 -93 2 0 15 17 27 38 13 20 26 39 29 42 3 3 26 34 51 70 24 36
47 67 50 70 3 3 12 15 18 28 7 13 19 31 28 40 12 14 128 177 195 276 7 10 19
24 26 32 14 14 16 34 4 34 -4 0 -42 33 -85 74 -42 41 -77 72 -77 70 0 -1 -15
11 -32 27 -18 17 -58 49 -88 72 -30 23 -62 50 -71 59 -9 10 -20 18 -23 18 -4
0 -26 15 -49 34 -44 35 -252 177 -277 189 -8 4 -28 16 -45 27 -16 10 -46 27
-65 37 -19 9 -37 20 -40 24 -13 18 -398 205 -412 201 -5 -1 -8 3 -8 9 0 5 -4
7 -10 4 -5 -3 -10 -1 -10 5 0 7 -7 10 -15 7 -8 -4 -17 -3 -19 2 -3 4 -38 20
-78 35 -40 15 -82 31 -93 36 -71 28 -138 50 -162 52 -7 1 -13 4 -13 8 0 4 -6
7 -12 8 -16 1 -38 7 -58 15 -22 9 -161 47 -190 53 -47 9 -55 11 -95 22 -22 6
-51 13 -65 16 -14 2 -45 9 -70 15 -41 9 -142 26 -215 37 -16 2 -48 6 -70 9
-98 15 -138 19 -275 32 -82 7 -645 15 -651 8z"/>
<path d="M4876 8202 c-3 -5 -41 -11 -83 -11 -43 -1 -91 -4 -108 -6 -16 -2 -59
-7 -95 -11 -36 -3 -74 -8 -85 -10 -10 -2 -37 -6 -60 -9 -37 -5 -51 -8 -115
-20 -14 -3 -38 -8 -53 -10 -25 -5 -130 -30 -167 -40 -8 -2 -57 -16 -109 -30
-51 -14 -98 -28 -105 -32 -6 -4 -22 -9 -36 -11 -13 -2 -27 -8 -31 -14 -3 -5
-9 -9 -13 -9 -9 1 -22 -2 -51 -14 -141 -56 -189 -78 -300 -134 -71 -36 -133
-70 -137 -75 -4 -6 -8 -8 -8 -3 0 7 -251 -159 -295 -195 -116 -96 -171 -144
-233 -206 l-73 -73 29 -42 c71 -103 202 -308 202 -316 0 -5 4 -11 9 -13 5 -1
48 -66 97 -142 l88 -139 46 53 c47 56 193 203 227 232 121 97 253 188 323 223
19 10 43 25 54 34 10 9 19 14 20 13 0 -2 40 15 88 37 48 23 89 41 91 41 3 0
22 8 43 17 22 9 41 17 44 18 3 1 55 17 115 37 61 20 124 38 140 41 17 3 37 8
45 11 8 3 29 8 45 11 17 3 41 8 55 11 14 3 39 6 55 9 17 2 30 4 30 5 0 1 14 4
30 6 17 2 46 6 65 8 213 29 545 26 750 -9 19 -3 51 -7 70 -9 19 -2 42 -6 50
-9 8 -4 29 -8 45 -11 34 -6 90 -19 130 -32 6 -1 37 -10 70 -19 33 -9 67 -19
75 -22 8 -3 17 -7 20 -8 3 -1 14 -5 25 -9 11 -4 45 -17 75 -28 125 -47 379
-178 424 -220 11 -10 24 -18 29 -18 8 0 82 -56 166 -125 14 -11 60 -55 103
-97 43 -43 81 -78 85 -78 5 0 24 24 43 53 19 28 41 58 47 65 7 7 13 17 13 20
0 4 11 19 24 33 13 14 32 41 41 60 10 19 26 40 36 47 11 7 19 17 19 22 0 8
114 176 130 190 3 3 24 32 47 66 l41 60 -61 56 c-116 105 -144 128 -156 128
-6 0 -11 4 -11 10 0 15 -279 196 -410 265 -66 34 -120 61 -120 59 0 -2 -21 7
-47 20 -41 21 -109 49 -198 82 -11 4 -23 6 -27 6 -5 -1 -8 3 -8 9 0 6 -6 9
-14 6 -7 -3 -17 -2 -22 3 -5 4 -49 20 -99 34 -117 35 -130 39 -132 38 -2 -1
-24 5 -50 13 -25 8 -50 12 -55 9 -4 -3 -8 -1 -8 3 0 5 -8 9 -17 10 -10 0 -31
4 -48 7 -87 18 -196 36 -245 41 -30 3 -66 8 -80 11 -33 7 -134 14 -252 17 -57
1 -98 6 -98 12 0 7 -3 7 -8 0 -9 -12 -154 -14 -163 -1 -4 4 -9 4 -13 -2z"/>
<path d="M4795 6561 c-16 -4 -47 -6 -67 -6 -21 1 -38 -1 -38 -5 0 -3 -15 -5
-32 -5 -29 -1 -52 -4 -143 -20 -11 -2 -31 -7 -45 -10 -14 -3 -34 -8 -45 -10
-39 -6 -230 -67 -241 -76 -7 -6 -22 -12 -33 -14 -28 -5 -240 -108 -295 -142
-62 -40 -120 -77 -131 -85 -5 -5 -37 -28 -70 -52 -71 -53 -115 -91 -115 -99 0
-8 48 -83 142 -225 37 -57 68 -106 68 -108 0 -3 5 -10 10 -17 20 -23 110 -167
110 -176 0 -20 35 -21 60 -1 41 33 138 100 145 100 4 0 21 11 39 25 18 14 38
25 44 25 7 0 12 5 12 12 0 6 3 9 6 5 3 -3 34 8 68 26 33 17 66 32 71 34 6 1
51 17 101 36 49 18 96 31 102 29 7 -2 12 0 12 5 0 8 8 10 65 15 14 1 25 5 25
8 0 3 12 7 28 7 15 1 50 5 77 9 91 12 460 7 460 -6 0 -1 11 -4 25 -6 41 -6 63
-11 95 -19 49 -12 178 -52 210 -66 17 -7 33 -13 38 -14 4 -2 10 -4 15 -5 4 -1
10 -2 15 -1 4 0 7 -4 7 -10 0 -5 5 -7 10 -4 6 3 10 1 10 -5 0 -6 4 -9 9 -6 5
4 11 3 13 -1 1 -5 26 -19 53 -32 28 -13 90 -51 138 -84 102 -69 87 -74 175 53
28 41 79 112 112 158 33 46 60 87 60 93 0 5 4 9 10 9 5 0 17 14 26 32 9 17 21
37 28 45 6 7 16 19 21 26 34 40 42 62 29 75 -7 6 -17 12 -21 12 -5 0 -15 9
-23 20 -8 11 -20 20 -26 20 -6 0 -17 7 -24 15 -15 18 -177 125 -189 125 -5 0
-11 4 -13 8 -5 14 -195 106 -308 149 -58 22 -145 51 -195 63 -49 12 -97 25
-105 28 -23 8 -41 12 -85 17 -22 2 -58 7 -80 11 -109 16 -365 25 -420 15z"/>
<path d="M3876 5263 c-7 -8 -26 -12 -69 -16 -15 -2 -33 -9 -39 -15 -7 -7 -18
-12 -26 -12 -16 0 -99 -56 -125 -85 -56 -63 -100 -147 -113 -217 -7 -42 -7
-4275 1 -4346 12 -110 101 -241 203 -298 98 -55 60 -54 1161 -54 754 0 1026 3
1056 12 22 6 42 12 45 13 36 11 139 78 152 99 3 6 16 22 28 36 43 49 81 140
85 206 1 17 4 35 6 40 3 5 4 20 2 34 -4 31 -4 39 0 70 2 14 -1 31 -6 37 -6 8
-6 13 0 13 11 0 11 29 -1 48 -4 6 -4 12 1 12 4 0 8 15 8 34 0 19 -3 32 -7 29
-5 -2 -4 6 1 19 4 13 5 32 1 43 -4 11 -4 29 -1 40 4 11 5 39 4 63 -2 23 -3 50
-3 60 0 9 0 26 0 37 -1 11 -1 26 -1 33 1 6 1 19 1 27 0 8 0 22 0 30 0 8 0 23
0 33 0 9 0 33 1 52 1 19 1 47 0 63 0 15 -1 35 -1 45 0 9 0 26 0 37 -1 11 -1
26 -1 33 1 6 1 19 1 27 0 8 0 22 0 30 0 8 0 23 0 33 0 9 0 33 1 52 1 19 1 47
0 63 0 15 -1 35 -1 45 0 9 0 26 0 37 -1 11 -1 26 -1 33 1 6 1 19 1 27 0 8 0
22 0 30 0 8 0 23 0 33 0 31 2 86 4 107 1 11 -1 27 -5 36 -4 8 -4 21 1 29 4 7
5 23 0 35 -5 12 -4 28 0 35 5 8 5 21 0 30 -4 8 -4 22 0 31 5 8 5 21 1 28 -5 7
-5 30 -1 51 4 22 3 37 -1 34 -5 -3 -5 5 0 18 4 13 5 32 1 43 -4 11 -4 29 -1
40 4 11 6 38 4 60 -4 53 -4 56 0 85 2 14 -1 31 -6 38 -6 7 -6 12 0 12 11 0 11
29 -1 48 -4 6 -3 12 2 12 10 0 9 30 -2 48 -4 6 -4 12 1 12 4 0 8 15 8 34 0 19
-3 32 -7 29 -5 -2 -4 6 1 19 4 13 5 32 1 43 -4 11 -4 29 -1 40 4 11 6 38 4 60
-2 22 -3 46 -3 53 0 6 0 19 0 27 0 8 0 22 0 30 0 8 0 22 0 30 0 8 0 21 0 28 0
6 1 31 3 55 2 23 0 42 -4 42 -4 0 -4 14 1 30 5 19 5 28 -1 25 -5 -4 -6 3 0 17
4 13 5 32 1 43 -4 11 -4 29 -1 40 4 11 6 38 4 60 -4 53 -4 56 0 85 2 14 -1 31
-6 38 -6 7 -6 12 0 12 11 0 11 29 -1 48 -4 6 -3 12 2 12 10 0 9 30 -2 48 -4 6
-4 12 1 12 4 0 8 15 8 34 0 19 -3 32 -7 29 -5 -2 -4 6 1 19 4 13 5 32 1 43 -4
11 -4 29 -1 40 4 11 6 38 4 60 -2 22 -3 46 -3 53 0 6 0 19 0 27 0 8 0 22 0 30
0 8 0 22 0 30 0 8 0 21 0 28 0 6 1 31 3 55 2 23 0 42 -4 42 -4 0 -4 14 1 30 5
19 5 28 -1 25 -5 -4 -6 3 0 17 4 13 5 32 1 43 -4 11 -4 29 -1 40 4 11 6 38 4
60 -4 53 -4 56 0 85 2 14 -1 31 -6 38 -6 7 -6 12 0 12 11 0 11 29 -1 48 -4 6
-3 12 2 12 10 0 9 30 -2 48 -4 6 -4 12 1 12 4 0 8 15 8 34 0 19 -3 32 -7 29
-5 -2 -4 7 1 20 6 16 6 28 -1 35 -6 6 -6 12 1 16 7 5 7 15 1 31 -7 17 -6 25 1
25 8 0 8 4 2 13 -5 6 -10 21 -10 32 -2 42 -47 139 -87 188 -78 96 -194 152
-325 156 -36 1 -68 4 -73 7 -4 3 -8 1 -8 -5 0 -6 -11 -6 -30 -1 -17 5 -30 5
-30 0 0 -5 -6 -7 -13 -4 -22 8 -87 11 -87 3 0 -4 -13 -4 -30 1 -19 5 -30 5
-30 -1 0 -6 -5 -7 -11 -3 -10 6 -197 9 -224 4 -5 -1 -14 -2 -20 0 -13 2 -208
2 -221 -1 -5 -1 -11 -1 -14 0 -16 6 -250 5 -250 -1 0 -4 -13 -3 -30 2 -17 5
-30 5 -30 0 0 -5 -6 -7 -13 -4 -22 8 -87 11 -87 3 0 -4 -13 -4 -30 1 -19 5
-30 5 -30 -1 0 -6 -5 -7 -10 -4 -9 6 -280 10 -305 5 -5 -1 -14 -2 -20 -1 -27
5 -298 2 -302 -3 -3 -3 -13 -1 -23 4 -10 5 -20 6 -24 3z"/>
</g>
</svg>
